G04 EAGLE Gerber RS-274X export*
G75*
%MOMM*%
%FSLAX34Y34*%
%LPD*%
%IN*%
%IPPOS*%
%AMOC8*
5,1,8,0,0,1.08239X$1,22.5*%
G01*
%ADD10C,0.254000*%


D10*
X0Y0D02*
X990600Y0D01*
X990600Y482600D01*
X0Y482600D01*
X0Y0D01*
X955675Y431280D02*
X955607Y430243D01*
X955471Y429213D01*
X955269Y428193D01*
X955000Y427189D01*
X954665Y426205D01*
X954268Y425245D01*
X953808Y424313D01*
X953288Y423412D01*
X952711Y422548D01*
X952078Y421724D01*
X951393Y420942D01*
X950658Y420207D01*
X949876Y419522D01*
X949052Y418889D01*
X948188Y418312D01*
X947287Y417792D01*
X946355Y417332D01*
X945395Y416935D01*
X944411Y416600D01*
X943407Y416331D01*
X942387Y416129D01*
X941357Y415993D01*
X940320Y415925D01*
X939280Y415925D01*
X938243Y415993D01*
X937213Y416129D01*
X936193Y416331D01*
X935189Y416600D01*
X934205Y416935D01*
X933245Y417332D01*
X932313Y417792D01*
X931412Y418312D01*
X930548Y418889D01*
X929724Y419522D01*
X928942Y420207D01*
X928207Y420942D01*
X927522Y421724D01*
X926889Y422548D01*
X926312Y423412D01*
X925792Y424313D01*
X925332Y425245D01*
X924935Y426205D01*
X924600Y427189D01*
X924331Y428193D01*
X924129Y429213D01*
X923993Y430243D01*
X923925Y431280D01*
X923925Y432320D01*
X923993Y433357D01*
X924129Y434387D01*
X924331Y435407D01*
X924600Y436411D01*
X924935Y437395D01*
X925332Y438355D01*
X925792Y439287D01*
X926312Y440188D01*
X926889Y441052D01*
X927522Y441876D01*
X928207Y442658D01*
X928942Y443393D01*
X929724Y444078D01*
X930548Y444711D01*
X931412Y445288D01*
X932313Y445808D01*
X933245Y446268D01*
X934205Y446665D01*
X935189Y447000D01*
X936193Y447269D01*
X937213Y447471D01*
X938243Y447607D01*
X939280Y447675D01*
X940320Y447675D01*
X941357Y447607D01*
X942387Y447471D01*
X943407Y447269D01*
X944411Y447000D01*
X945395Y446665D01*
X946355Y446268D01*
X947287Y445808D01*
X948188Y445288D01*
X949052Y444711D01*
X949876Y444078D01*
X950658Y443393D01*
X951393Y442658D01*
X952078Y441876D01*
X952711Y441052D01*
X953288Y440188D01*
X953808Y439287D01*
X954268Y438355D01*
X954665Y437395D01*
X955000Y436411D01*
X955269Y435407D01*
X955471Y434387D01*
X955607Y433357D01*
X955675Y432320D01*
X955675Y431280D01*
X955675Y50280D02*
X955607Y49243D01*
X955471Y48213D01*
X955269Y47193D01*
X955000Y46189D01*
X954665Y45205D01*
X954268Y44245D01*
X953808Y43313D01*
X953288Y42412D01*
X952711Y41548D01*
X952078Y40724D01*
X951393Y39942D01*
X950658Y39207D01*
X949876Y38522D01*
X949052Y37889D01*
X948188Y37312D01*
X947287Y36792D01*
X946355Y36332D01*
X945395Y35935D01*
X944411Y35600D01*
X943407Y35331D01*
X942387Y35129D01*
X941357Y34993D01*
X940320Y34925D01*
X939280Y34925D01*
X938243Y34993D01*
X937213Y35129D01*
X936193Y35331D01*
X935189Y35600D01*
X934205Y35935D01*
X933245Y36332D01*
X932313Y36792D01*
X931412Y37312D01*
X930548Y37889D01*
X929724Y38522D01*
X928942Y39207D01*
X928207Y39942D01*
X927522Y40724D01*
X926889Y41548D01*
X926312Y42412D01*
X925792Y43313D01*
X925332Y44245D01*
X924935Y45205D01*
X924600Y46189D01*
X924331Y47193D01*
X924129Y48213D01*
X923993Y49243D01*
X923925Y50280D01*
X923925Y51320D01*
X923993Y52357D01*
X924129Y53387D01*
X924331Y54407D01*
X924600Y55411D01*
X924935Y56395D01*
X925332Y57355D01*
X925792Y58287D01*
X926312Y59188D01*
X926889Y60052D01*
X927522Y60876D01*
X928207Y61658D01*
X928942Y62393D01*
X929724Y63078D01*
X930548Y63711D01*
X931412Y64288D01*
X932313Y64808D01*
X933245Y65268D01*
X934205Y65665D01*
X935189Y66000D01*
X936193Y66269D01*
X937213Y66471D01*
X938243Y66607D01*
X939280Y66675D01*
X940320Y66675D01*
X941357Y66607D01*
X942387Y66471D01*
X943407Y66269D01*
X944411Y66000D01*
X945395Y65665D01*
X946355Y65268D01*
X947287Y64808D01*
X948188Y64288D01*
X949052Y63711D01*
X949876Y63078D01*
X950658Y62393D01*
X951393Y61658D01*
X952078Y60876D01*
X952711Y60052D01*
X953288Y59188D01*
X953808Y58287D01*
X954268Y57355D01*
X954665Y56395D01*
X955000Y55411D01*
X955269Y54407D01*
X955471Y53387D01*
X955607Y52357D01*
X955675Y51320D01*
X955675Y50280D01*
X66675Y431280D02*
X66607Y430243D01*
X66471Y429213D01*
X66269Y428193D01*
X66000Y427189D01*
X65665Y426205D01*
X65268Y425245D01*
X64808Y424313D01*
X64288Y423412D01*
X63711Y422548D01*
X63078Y421724D01*
X62393Y420942D01*
X61658Y420207D01*
X60876Y419522D01*
X60052Y418889D01*
X59188Y418312D01*
X58287Y417792D01*
X57355Y417332D01*
X56395Y416935D01*
X55411Y416600D01*
X54407Y416331D01*
X53387Y416129D01*
X52357Y415993D01*
X51320Y415925D01*
X50280Y415925D01*
X49243Y415993D01*
X48213Y416129D01*
X47193Y416331D01*
X46189Y416600D01*
X45205Y416935D01*
X44245Y417332D01*
X43313Y417792D01*
X42412Y418312D01*
X41548Y418889D01*
X40724Y419522D01*
X39942Y420207D01*
X39207Y420942D01*
X38522Y421724D01*
X37889Y422548D01*
X37312Y423412D01*
X36792Y424313D01*
X36332Y425245D01*
X35935Y426205D01*
X35600Y427189D01*
X35331Y428193D01*
X35129Y429213D01*
X34993Y430243D01*
X34925Y431280D01*
X34925Y432320D01*
X34993Y433357D01*
X35129Y434387D01*
X35331Y435407D01*
X35600Y436411D01*
X35935Y437395D01*
X36332Y438355D01*
X36792Y439287D01*
X37312Y440188D01*
X37889Y441052D01*
X38522Y441876D01*
X39207Y442658D01*
X39942Y443393D01*
X40724Y444078D01*
X41548Y444711D01*
X42412Y445288D01*
X43313Y445808D01*
X44245Y446268D01*
X45205Y446665D01*
X46189Y447000D01*
X47193Y447269D01*
X48213Y447471D01*
X49243Y447607D01*
X50280Y447675D01*
X51320Y447675D01*
X52357Y447607D01*
X53387Y447471D01*
X54407Y447269D01*
X55411Y447000D01*
X56395Y446665D01*
X57355Y446268D01*
X58287Y445808D01*
X59188Y445288D01*
X60052Y444711D01*
X60876Y444078D01*
X61658Y443393D01*
X62393Y442658D01*
X63078Y441876D01*
X63711Y441052D01*
X64288Y440188D01*
X64808Y439287D01*
X65268Y438355D01*
X65665Y437395D01*
X66000Y436411D01*
X66269Y435407D01*
X66471Y434387D01*
X66607Y433357D01*
X66675Y432320D01*
X66675Y431280D01*
X66675Y50280D02*
X66607Y49243D01*
X66471Y48213D01*
X66269Y47193D01*
X66000Y46189D01*
X65665Y45205D01*
X65268Y44245D01*
X64808Y43313D01*
X64288Y42412D01*
X63711Y41548D01*
X63078Y40724D01*
X62393Y39942D01*
X61658Y39207D01*
X60876Y38522D01*
X60052Y37889D01*
X59188Y37312D01*
X58287Y36792D01*
X57355Y36332D01*
X56395Y35935D01*
X55411Y35600D01*
X54407Y35331D01*
X53387Y35129D01*
X52357Y34993D01*
X51320Y34925D01*
X50280Y34925D01*
X49243Y34993D01*
X48213Y35129D01*
X47193Y35331D01*
X46189Y35600D01*
X45205Y35935D01*
X44245Y36332D01*
X43313Y36792D01*
X42412Y37312D01*
X41548Y37889D01*
X40724Y38522D01*
X39942Y39207D01*
X39207Y39942D01*
X38522Y40724D01*
X37889Y41548D01*
X37312Y42412D01*
X36792Y43313D01*
X36332Y44245D01*
X35935Y45205D01*
X35600Y46189D01*
X35331Y47193D01*
X35129Y48213D01*
X34993Y49243D01*
X34925Y50280D01*
X34925Y51320D01*
X34993Y52357D01*
X35129Y53387D01*
X35331Y54407D01*
X35600Y55411D01*
X35935Y56395D01*
X36332Y57355D01*
X36792Y58287D01*
X37312Y59188D01*
X37889Y60052D01*
X38522Y60876D01*
X39207Y61658D01*
X39942Y62393D01*
X40724Y63078D01*
X41548Y63711D01*
X42412Y64288D01*
X43313Y64808D01*
X44245Y65268D01*
X45205Y65665D01*
X46189Y66000D01*
X47193Y66269D01*
X48213Y66471D01*
X49243Y66607D01*
X50280Y66675D01*
X51320Y66675D01*
X52357Y66607D01*
X53387Y66471D01*
X54407Y66269D01*
X55411Y66000D01*
X56395Y65665D01*
X57355Y65268D01*
X58287Y64808D01*
X59188Y64288D01*
X60052Y63711D01*
X60876Y63078D01*
X61658Y62393D01*
X62393Y61658D01*
X63078Y60876D01*
X63711Y60052D01*
X64288Y59188D01*
X64808Y58287D01*
X65268Y57355D01*
X65665Y56395D01*
X66000Y55411D01*
X66269Y54407D01*
X66471Y53387D01*
X66607Y52357D01*
X66675Y51320D01*
X66675Y50280D01*
M02*
