M48
;GenerationSoftware,Autodesk,EAGLE,9.4.2*%
;CreationDate,2020-03-02T15:31:17Z*%
FMAT,2
ICI,OFF
METRIC,TZ,000.000
T3C1.016
T2C3.175
%
G90
M71
T2
X93980Y5080
X5080Y43180
X5080Y5080
X93980Y43180
T3
X20320Y5080
X17780Y30480
X22860Y5080
X25400Y5080
X12700Y27940
X12700Y30480
X12700Y33020
X12700Y35560
X12700Y38100
X15240Y27940
X15240Y30480
X15240Y33020
X15240Y35560
X15240Y38100
X17780Y27940
X73660Y15240
X17780Y5080
X15240Y5080
X78740Y20320
X78740Y17780
X78740Y15240
X78740Y12700
X78740Y10160
X76200Y20320
X76200Y17780
X76200Y15240
X76200Y12700
X76200Y10160
X73660Y20320
X73660Y17780
X76200Y30480
X68580Y33020
X43180Y15240
X76200Y27940
X73660Y38100
X73660Y35560
X73660Y33020
X73660Y30480
X73660Y27940
X71120Y38100
X71120Y35560
X71120Y33020
X71120Y30480
X71120Y27940
X68580Y38100
X68580Y35560
X17780Y33020
X68580Y30480
X68580Y27940
X66040Y38100
X66040Y35560
X66040Y33020
X66040Y30480
X66040Y27940
X20320Y38100
X20320Y35560
X20320Y33020
X20320Y30480
X20320Y27940
X17780Y38100
X17780Y35560
X50800Y12700
X58420Y10160
X55880Y20320
X55880Y17780
X55880Y15240
X55880Y12700
X55880Y10160
X53340Y20320
X53340Y17780
X53340Y15240
X53340Y12700
X53340Y10160
X50800Y20320
X50800Y17780
X50800Y15240
X58420Y12700
X50800Y10160
X48260Y20320
X48260Y17780
X48260Y15240
X48260Y12700
X48260Y10160
X45720Y20320
X45720Y17780
X45720Y15240
X45720Y12700
X45720Y10160
X43180Y20320
X43180Y17780
X86360Y43180
X66040Y12700
X73660Y10160
X71120Y20320
X71120Y17780
X71120Y15240
X71120Y12700
X71120Y10160
X68580Y20320
X68580Y17780
X68580Y15240
X68580Y12700
X68580Y10160
X66040Y20320
X66040Y17780
X66040Y15240
X73660Y12700
X66040Y10160
X63500Y20320
X63500Y17780
X63500Y15240
X63500Y12700
X63500Y10160
X60960Y20320
X60960Y17780
X60960Y15240
X60960Y12700
X60960Y10160
X58420Y20320
X58420Y17780
X58420Y15240
X7620Y20320
X86360Y10160
X83820Y20320
X83820Y17780
X83820Y15240
X83820Y12700
X83820Y10160
X81280Y20320
X81280Y17780
X81280Y15240
X81280Y12700
X81280Y10160
X10160Y20320
X10160Y17780
X10160Y15240
X10160Y12700
X86360Y12700
X7620Y17780
X7620Y15240
X7620Y12700
X5080Y20320
X5080Y17780
X5080Y15240
X5080Y12700
X2540Y20320
X2540Y17780
X2540Y15240
X2540Y12700
X12700Y5080
X12700Y2540
X10160Y35560
X86360Y30480
X83820Y43180
X81280Y43180
X86360Y45720
X83820Y45720
X81280Y45720
X86360Y2540
X83820Y2540
X81280Y2540
X86360Y5080
X83820Y5080
X81280Y5080
X86360Y38100
X86360Y35560
X86360Y33020
X10160Y33020
X86360Y27940
X83820Y38100
X83820Y35560
X83820Y33020
X83820Y30480
X83820Y27940
X81280Y38100
X81280Y35560
X81280Y33020
X81280Y30480
X81280Y27940
X86360Y20320
X86360Y17780
X86360Y15240
X91440Y30480
X88900Y15240
X88900Y12700
X78740Y5080
X78740Y2540
X96520Y35560
X96520Y33020
X96520Y30480
X96520Y27940
X93980Y35560
X93980Y33020
X93980Y30480
X93980Y27940
X91440Y35560
X91440Y33020
X88900Y17780
X91440Y27940
X88900Y35560
X88900Y33020
X88900Y30480
X88900Y27940
X78740Y45720
X78740Y43180
X78740Y38100
X78740Y35560
X78740Y33020
X78740Y30480
X78740Y27940
X76200Y38100
X76200Y35560
X12700Y45720
X10160Y30480
X10160Y27940
X7620Y35560
X7620Y33020
X7620Y30480
X7620Y27940
X5080Y35560
X5080Y33020
X5080Y30480
X5080Y27940
X2540Y35560
X2540Y33020
X2540Y30480
X2540Y27940
X76200Y33020
X12700Y43180
X96520Y20320
X96520Y17780
X96520Y15240
X96520Y12700
X93980Y20320
X93980Y17780
X93980Y15240
X93980Y12700
X91440Y20320
X91440Y17780
X91440Y15240
X91440Y12700
X88900Y20320
X53340Y38100
X60960Y38100
X60960Y35560
X60960Y33020
X60960Y30480
X60960Y27940
X58420Y38100
X58420Y35560
X58420Y33020
X58420Y30480
X58420Y27940
X55880Y38100
X55880Y35560
X55880Y33020
X55880Y30480
X55880Y27940
X63500Y27940
X53340Y35560
X53340Y33020
X53340Y30480
X53340Y27940
X50800Y38100
X50800Y35560
X50800Y33020
X50800Y30480
X50800Y27940
X48260Y38100
X48260Y35560
X48260Y33020
X48260Y30480
X48260Y27940
X15240Y43180
X50800Y43180
X48260Y43180
X45720Y43180
X43180Y43180
X40640Y43180
X38100Y43180
X35560Y43180
X33020Y43180
X30480Y43180
X27940Y43180
X25400Y43180
X22860Y43180
X20320Y43180
X17780Y43180
X50800Y5080
X76200Y5080
X73660Y5080
X71120Y5080
X68580Y5080
X66040Y5080
X63500Y5080
X60960Y5080
X58420Y5080
X55880Y5080
X53340Y5080
X63500Y38100
X63500Y35560
X63500Y33020
X63500Y30480
X25400Y38100
X33020Y35560
X33020Y33020
X33020Y30480
X33020Y27940
X30480Y38100
X30480Y35560
X30480Y33020
X30480Y30480
X30480Y27940
X27940Y38100
X27940Y35560
X27940Y33020
X27940Y30480
X27940Y27940
X33020Y38100
X25400Y35560
X25400Y33020
X25400Y30480
X25400Y27940
X22860Y38100
X22860Y35560
X22860Y33020
X22860Y30480
X22860Y27940
X38100Y5080
X35560Y5080
X33020Y5080
X30480Y5080
X27940Y5080
X40640Y38100
X48260Y5080
X45720Y5080
X43180Y5080
X40640Y5080
X45720Y38100
X45720Y35560
X45720Y33020
X45720Y30480
X45720Y27940
X43180Y38100
X43180Y35560
X43180Y33020
X43180Y30480
X43180Y27940
X53340Y43180
X40640Y35560
X40640Y33020
X40640Y30480
X40640Y27940
X38100Y38100
X38100Y35560
X38100Y33020
X38100Y30480
X38100Y27940
X35560Y38100
X35560Y35560
X35560Y33020
X35560Y30480
X35560Y27940
X20320Y10160
X27940Y10160
X25400Y20320
X25400Y17780
X25400Y15240
X25400Y12700
X25400Y10160
X22860Y20320
X22860Y17780
X22860Y15240
X22860Y12700
X22860Y10160
X20320Y20320
X20320Y17780
X20320Y15240
X20320Y12700
X27940Y12700
X17780Y20320
X17780Y17780
X17780Y15240
X17780Y12700
X17780Y10160
X15240Y20320
X15240Y17780
X15240Y15240
X15240Y12700
X15240Y10160
X12700Y20320
X12700Y17780
X12700Y15240
X12700Y12700
X35560Y12700
X43180Y10160
X40640Y20320
X40640Y17780
X40640Y15240
X40640Y12700
X40640Y10160
X38100Y20320
X38100Y17780
X38100Y15240
X38100Y12700
X38100Y10160
X35560Y20320
X35560Y17780
X35560Y15240
X12700Y10160
X35560Y10160
X33020Y20320
X33020Y17780
X33020Y15240
X33020Y12700
X33020Y10160
X30480Y20320
X30480Y17780
X30480Y15240
X30480Y12700
X30480Y10160
X27940Y20320
X27940Y17780
X27940Y15240
X15240Y45720
X50800Y45720
X48260Y45720
X45720Y45720
X43180Y45720
X40640Y45720
X38100Y45720
X35560Y45720
X33020Y45720
X30480Y45720
X27940Y45720
X25400Y45720
X22860Y45720
X20320Y45720
X17780Y45720
X53340Y45720
X76200Y43180
X73660Y43180
X71120Y43180
X68580Y43180
X66040Y43180
X25400Y2540
X22860Y2540
X20320Y2540
X17780Y2540
X15240Y2540
X63500Y43180
X60960Y43180
X58420Y43180
X55880Y43180
X40640Y2540
X76200Y2540
X73660Y2540
X71120Y2540
X68580Y2540
X66040Y2540
X63500Y2540
X60960Y2540
X58420Y2540
X55880Y2540
X53340Y2540
X50800Y2540
X48260Y2540
X45720Y2540
X43180Y2540
X43180Y12700
X38100Y2540
X35560Y2540
X33020Y2540
X30480Y2540
X27940Y2540
X76200Y45720
X73660Y45720
X71120Y45720
X68580Y45720
X66040Y45720
X63500Y45720
X60960Y45720
X58420Y45720
X55880Y45720
M30